<svg width="1280" height="1280" viewBox="0 0 1280 1280" fill="none" xmlns="http://www.w3.org/2000/svg">
<g clip-path="url(#clip0_323_595)">
<rect width="1280" height="1280" fill="none"/>
<path d="M554 1261.21L477 1281V1121.72L554 1103.16V1261.21Z" fill="#E6DED0"/>
<path fill-rule="evenodd" clip-rule="evenodd" d="M554 298.119L971.086 190.843C1031.83 175.219 1091 221.093 1091 283.816V813.567L1090.99 814.593C1090.54 857.972 1061.01 895.713 1018.91 906.541L796 963.875V1199L719 1218.79V983.68L189 1120V392L477 317.924V82L554 62.2061V298.119ZM973 343.145C973 327.464 958.208 315.995 943.021 319.901L554 419.959V714.161L477 732.719V439.764L307 483.489V967.809L719 861.839V567.438L796 548.881V842.034L957.982 800.372C966.821 798.098 973 790.129 973 781.002V343.145Z" fill="#E6DED0"/>
<path d="M796 159.881L719 178.438V19.793L796 0V159.881Z" fill="#E6DED0"/>
</g>
<defs>
<clipPath id="clip0_323_595">
<rect width="1280" height="1280" fill="none"/>
</clipPath>
</defs>
</svg>
