<svg width="222" height="27" viewBox="0 0 222 27" fill="none" xmlns="http://www.w3.org/2000/svg">
<path fill-rule="evenodd" clip-rule="evenodd" d="M202.469 26.3221C200.444 26.0294 198.391 25.8553 196.4 25.4148C193.61 24.7976 190.867 23.9822 187.893 23.1957C188.458 21.5165 188.919 20.1464 189.32 18.9533C192.395 19.8797 195.344 20.9446 198.381 21.6432C202.981 22.701 207.639 22.6515 212.241 21.5226C213.105 21.3107 213.981 20.9041 214.69 20.3792C216.273 19.2071 216.094 17.2571 214.26 16.5188C212.935 15.9853 211.453 15.713 210.016 15.5738C205.422 15.1304 200.809 14.8594 196.217 14.3982C194.738 14.2497 193.252 13.8449 191.851 13.3397C186.95 11.5705 187.489 6.11667 190.147 3.83363C192.451 1.85517 195.248 1.12487 198.147 0.618033C199.58 0.367704 201.028 0.203325 202.469 0C204.211 0 205.954 0 207.696 0C208.41 0.112003 209.128 0.207085 209.838 0.339233C212.791 0.889312 215.748 1.42113 218.685 2.04292C219.065 2.1235 219.669 2.7743 219.604 3.0163C219.288 4.19462 218.78 5.32352 218.468 6.13682C214.611 5.42854 211.011 4.62894 207.367 4.13795C203.854 3.66442 200.325 3.93032 196.933 5.04848C195.035 5.6743 194.143 6.79756 194.399 8.08815C194.726 9.74027 196.201 9.8708 197.487 9.99704C202.58 10.498 207.688 10.849 212.778 11.3738C216.718 11.7802 220.589 12.4418 222.001 16.9214C222.001 17.6377 222.001 18.3538 222.001 19.0701C221.192 21.4184 219.708 23.1987 217.325 24.1304C215.981 24.6561 214.596 25.1266 213.187 25.4342C211.379 25.8287 209.528 26.035 207.696 26.3221C205.954 26.3221 204.211 26.3221 202.469 26.3221Z" fill="black"/>
<path fill-rule="evenodd" clip-rule="evenodd" d="M57.7696 26.3221C55.2492 25.9402 52.7016 25.6783 50.2161 25.1414C47.8709 24.6351 45.5909 23.8398 43.1002 23.1194C43.654 21.4845 44.1167 20.1182 44.5098 18.9573C47.5983 19.8907 50.5107 20.9481 53.512 21.6365C58.1135 22.6916 62.7774 22.6677 67.3798 21.5261C68.3244 21.2919 69.2897 20.8286 70.0405 20.227C71.3865 19.1486 71.1692 17.2566 69.5681 16.6044C68.2034 16.0487 66.6871 15.7253 65.2087 15.5787C60.657 15.1266 56.0844 14.8755 51.5352 14.4025C49.9234 14.2349 48.2657 13.8557 46.7868 13.2218C42.8417 11.5312 42.0645 7.04547 45.126 4.04743C47.4077 1.81274 50.4062 1.12487 53.4515 0.606215C54.7942 0.376836 56.1466 0.200371 57.4945 0C59.3286 0 61.1624 0 62.9964 0C65.0668 0.292229 67.1517 0.511402 69.2034 0.897907C71.115 1.25782 72.9917 1.79501 75.0521 2.29513C74.5163 3.80409 74.0599 5.08823 73.6021 6.37667C71.1959 5.77798 68.8889 5.09709 66.5361 4.64102C62.0556 3.77239 57.546 3.59834 53.084 4.76726C52.1379 5.01517 51.1627 5.44251 50.4065 6.03636C48.886 7.23053 49.2511 9.21463 51.1349 9.63874C53.3024 10.1265 55.5496 10.3054 57.7718 10.5259C61.8168 10.9266 65.8756 11.2017 69.9139 11.6537C71.1593 11.7934 72.4005 12.2371 73.5697 12.7141C78.2523 14.6246 77.8655 20.5358 74.6461 22.8745C71.7362 24.9883 68.3451 25.594 64.8709 25.991C64.151 26.0732 63.4374 26.2101 62.721 26.3221C61.0708 26.3221 59.4202 26.3221 57.7696 26.3221Z" fill="black"/>
<path fill-rule="evenodd" clip-rule="evenodd" d="M0 2.95452C0.843438 1.22559 2.28438 0.8278 4.15969 0.844185C12.5916 0.918048 21.0246 0.876416 29.4571 0.876416C29.9987 0.876416 30.5404 0.876416 31.1764 0.876416C31.1764 2.17748 31.1764 3.36332 31.1764 4.71703C30.6716 4.74282 30.1434 4.79277 29.6152 4.79331C22.3742 4.79868 15.1329 4.82877 7.89244 4.76833C6.56512 4.75705 6.11974 5.11804 6.21162 6.41964C6.32358 8.01025 6.2383 9.61402 6.2383 11.3416C14.6232 11.3416 22.8507 11.3416 31.1745 11.3416C31.1745 12.7458 31.1745 14.0179 31.1745 15.425C22.9467 15.425 14.7192 15.425 6.30763 15.425C6.30763 18.9643 6.30763 22.3784 6.30763 26.0533C4.08487 26.0535 2.0423 26.0535 0 26.0535C0 18.3538 0 10.6543 0 2.95452Z" fill="black"/>
<path fill-rule="evenodd" clip-rule="evenodd" d="M151.348 25.9805C149.063 25.9805 147.093 26.0205 145.128 25.9478C144.721 25.9327 144.213 25.5833 143.951 25.2419C142.99 23.9908 142.168 22.636 141.175 21.4118C140.84 20.9995 140.155 20.6344 139.627 20.6296C133.624 20.5754 127.62 20.5721 121.617 20.6336C121.06 20.6393 120.504 21.1735 119.959 21.4821C119.851 21.5431 119.799 21.6959 119.719 21.8047C118.708 23.1796 117.978 25.0869 116.606 25.7796C115.226 26.4766 113.176 25.7724 111.471 26.0227C107.79 26.5636 105.196 25.2551 102.897 22.4405C100.449 19.4446 97.524 16.8223 94.8468 14.001C94.27 13.3929 93.8595 13.2962 93.1278 13.7891C90.7534 15.388 88.2933 16.8664 85.942 18.4951C85.4507 18.8357 85.048 19.6071 85.0097 20.2047C84.8903 22.0663 84.966 23.9392 84.966 25.8938C82.9518 25.8938 81.0952 25.8938 79.1139 25.8938C79.1139 17.6042 79.1139 9.31969 79.1139 0.955695C81.0261 0.955695 82.8824 0.955695 84.958 0.955695C84.958 5.06195 84.958 9.13866 84.958 13.5253C85.7528 13.0776 86.2631 12.8235 86.7382 12.5173C92.4332 8.84777 98.1136 5.15649 103.828 1.51679C104.398 1.15392 105.164 0.942265 105.848 0.920241C108.117 0.846915 110.39 0.892307 112.746 1.1421C108.195 4.08803 103.643 7.03396 98.9378 10.0793C103.222 14.5014 107.391 18.8048 111.694 23.2465C112.395 22.2852 113.003 21.4682 113.594 20.6393C117.65 14.9513 121.665 9.23481 125.789 3.59409C126.558 2.54281 127.618 1.50228 128.789 0.965364C131.023 -0.0590503 133.258 0.705635 134.927 2.86808C136.773 5.25937 138.496 7.74197 140.246 10.2026C143.669 15.0136 147.075 19.8365 150.485 24.6566C150.735 25.0117 150.96 25.384 151.348 25.9805ZM123.554 16.3853C128.363 16.3853 132.861 16.3853 137.68 16.3853C135.277 12.9736 133.018 9.76555 130.615 6.35361C128.209 9.77066 125.952 12.9777 123.554 16.3853Z" fill="black"/>
<path fill-rule="evenodd" clip-rule="evenodd" d="M158.991 25.9192C156.829 25.9192 154.916 25.9192 152.833 25.9192C152.811 25.4919 152.769 25.0657 152.769 24.6391C152.765 17.8811 152.763 11.123 152.768 4.36491C152.769 1.89788 153.824 0.878296 156.357 0.877491C163.096 0.874805 169.837 0.775962 176.571 0.936581C178.665 0.98654 180.843 1.49096 182.8 2.24033C185.457 3.25723 186.52 5.49568 186.482 8.27213C186.445 11.0037 185.266 13.0442 182.712 14.1433C181.275 14.7619 179.701 15.0767 177.959 15.5972C181.216 18.9777 184.456 22.3394 187.952 25.9671C185.36 25.9671 183.098 26.0181 180.843 25.9219C180.411 25.9037 179.962 25.3437 179.593 24.9663C176.746 22.0528 173.925 19.1169 171.074 16.2074C170.778 15.9058 170.349 15.5335 169.977 15.5284C166.367 15.4777 162.755 15.4978 158.992 15.4978C158.991 19.0035 158.991 22.3832 158.991 25.9192ZM158.941 11.3677C159.677 11.3677 160.175 11.3677 160.674 11.3677C165.707 11.3677 170.741 11.3682 175.775 11.3666C176.186 11.3666 176.601 11.3816 177.009 11.3395C179.033 11.1318 180.316 9.95164 180.375 8.26434C180.437 6.52225 179.334 5.35655 177.237 5.02135C176.429 4.89242 175.604 4.8097 174.787 4.8062C169.982 4.78687 165.177 4.78955 160.373 4.80647C159.789 4.80862 158.962 4.57092 158.948 5.57465C158.923 7.44003 158.941 9.30595 158.941 11.3677Z" fill="black"/>
<path fill-rule="evenodd" clip-rule="evenodd" d="M34.7599 25.9829C34.7599 17.5418 34.7599 9.31749 34.7599 0.890105C36.5796 0.890105 38.3498 0.84901 40.1129 0.940063C40.3454 0.95215 40.7112 1.63411 40.725 2.01578C40.7907 3.84893 40.758 5.6853 40.758 7.52087C40.7583 13.1611 40.7261 18.8018 40.783 24.4414C40.7954 25.6702 40.4268 26.104 39.1517 26.0071C37.7477 25.9004 36.3287 25.9829 34.7599 25.9829Z" fill="black"/>
</svg>
